<?xml version="1.0" encoding="UTF-8" standalone="no"?>
<!-- Created with Inkscape (http://www.inkscape.org/) -->

<svg
   xmlns:dc="http://purl.org/dc/elements/1.1/"
   xmlns:cc="http://creativecommons.org/ns#"
   xmlns:rdf="http://www.w3.org/1999/02/22-rdf-syntax-ns#"
   xmlns:svg="http://www.w3.org/2000/svg"
   xmlns="http://www.w3.org/2000/svg"
   xmlns:sodipodi="http://sodipodi.sourceforge.net/DTD/sodipodi-0.dtd"
   xmlns:inkscape="http://www.inkscape.org/namespaces/inkscape"
   height="1700"
   width="500"
   version="1.1"
   id="svg78"
   sodipodi:docname="footer.svg"
   inkscape:version="0.92.4 (5da689c313, 2019-01-14)">
  <defs
     id="defs82">
    <filter
       style="color-interpolation-filters:sRGB;"
       inkscape:label="Noise Fill"
       id="filter25103">
      <feTurbulence
         type="fractalNoise"
         baseFrequency="0.02 0.04"
         numOctaves="5"
         seed="1"
         result="turbulence"
         id="feTurbulence25087" />
      <feComposite
         in="SourceGraphic"
         in2="turbulence"
         operator="in"
         result="composite1"
         id="feComposite25089" />
      <feColorMatrix
         values="1 0 0 0 0 0 1 0 0 0 0 0 1 0 0 0 0 0 3 -0.2 "
         result="color"
         id="feColorMatrix25091" />
      <feFlood
         flood-opacity="1"
         flood-color="rgb(21,40,57)"
         result="flood"
         id="feFlood25093" />
      <feMerge
         result="merge"
         id="feMerge25099">
        <feMergeNode
           in="flood"
           id="feMergeNode25095" />
        <feMergeNode
           in="color"
           id="feMergeNode25097" />
      </feMerge>
      <feComposite
         in2="SourceGraphic"
         operator="in"
         result="composite2"
         id="feComposite25101" />
    </filter>
    <filter
       style="color-interpolation-filters:sRGB;"
       inkscape:label="Noise Fill"
       id="filter25121">
      <feTurbulence
         type="fractalNoise"
         baseFrequency="0.02 0.04"
         numOctaves="5"
         seed="1"
         result="turbulence"
         id="feTurbulence25105" />
      <feComposite
         in="SourceGraphic"
         in2="turbulence"
         operator="in"
         result="composite1"
         id="feComposite25107" />
      <feColorMatrix
         values="1 0 0 0 0 0 1 0 0 0 0 0 1 0 0 0 0 0 3 -0.2 "
         result="color"
         id="feColorMatrix25109" />
      <feFlood
         flood-opacity="1"
         flood-color="rgb(21,40,57)"
         result="flood"
         id="feFlood25111" />
      <feMerge
         result="merge"
         id="feMerge25117">
        <feMergeNode
           in="flood"
           id="feMergeNode25113" />
        <feMergeNode
           in="color"
           id="feMergeNode25115" />
      </feMerge>
      <feComposite
         in2="SourceGraphic"
         operator="in"
         result="composite2"
         id="feComposite25119" />
    </filter>
    <filter
       style="color-interpolation-filters:sRGB;"
       inkscape:label="Noise Fill"
       id="filter25139">
      <feTurbulence
         type="fractalNoise"
         baseFrequency="0.02 0.04"
         numOctaves="5"
         seed="1"
         result="turbulence"
         id="feTurbulence25123" />
      <feComposite
         in="SourceGraphic"
         in2="turbulence"
         operator="in"
         result="composite1"
         id="feComposite25125" />
      <feColorMatrix
         values="1 0 0 0 0 0 1 0 0 0 0 0 1 0 0 0 0 0 3 -0.2 "
         result="color"
         id="feColorMatrix25127" />
      <feFlood
         flood-opacity="1"
         flood-color="rgb(21,40,57)"
         result="flood"
         id="feFlood25129" />
      <feMerge
         result="merge"
         id="feMerge25135">
        <feMergeNode
           in="flood"
           id="feMergeNode25131" />
        <feMergeNode
           in="color"
           id="feMergeNode25133" />
      </feMerge>
      <feComposite
         in2="SourceGraphic"
         operator="in"
         result="composite2"
         id="feComposite25137" />
    </filter>
    <filter
       style="color-interpolation-filters:sRGB;"
       inkscape:label="Noise Fill"
       id="filter25157">
      <feTurbulence
         type="fractalNoise"
         baseFrequency="0.02 0.04"
         numOctaves="5"
         seed="1"
         result="turbulence"
         id="feTurbulence25141" />
      <feComposite
         in="SourceGraphic"
         in2="turbulence"
         operator="in"
         result="composite1"
         id="feComposite25143" />
      <feColorMatrix
         values="1 0 0 0 0 0 1 0 0 0 0 0 1 0 0 0 0 0 3 -0.2 "
         result="color"
         id="feColorMatrix25145" />
      <feFlood
         flood-opacity="1"
         flood-color="rgb(21,40,57)"
         result="flood"
         id="feFlood25147" />
      <feMerge
         result="merge"
         id="feMerge25153">
        <feMergeNode
           in="flood"
           id="feMergeNode25149" />
        <feMergeNode
           in="color"
           id="feMergeNode25151" />
      </feMerge>
      <feComposite
         in2="SourceGraphic"
         operator="in"
         result="composite2"
         id="feComposite25155" />
    </filter>
    <filter
       style="color-interpolation-filters:sRGB;"
       inkscape:label="Noise Fill"
       id="filter25175">
      <feTurbulence
         type="fractalNoise"
         baseFrequency="0.02 0.04"
         numOctaves="5"
         seed="1"
         result="turbulence"
         id="feTurbulence25159" />
      <feComposite
         in="SourceGraphic"
         in2="turbulence"
         operator="in"
         result="composite1"
         id="feComposite25161" />
      <feColorMatrix
         values="1 0 0 0 0 0 1 0 0 0 0 0 1 0 0 0 0 0 3 -0.2 "
         result="color"
         id="feColorMatrix25163" />
      <feFlood
         flood-opacity="1"
         flood-color="rgb(21,40,57)"
         result="flood"
         id="feFlood25165" />
      <feMerge
         result="merge"
         id="feMerge25171">
        <feMergeNode
           in="flood"
           id="feMergeNode25167" />
        <feMergeNode
           in="color"
           id="feMergeNode25169" />
      </feMerge>
      <feComposite
         in2="SourceGraphic"
         operator="in"
         result="composite2"
         id="feComposite25173" />
    </filter>
    <filter
       style="color-interpolation-filters:sRGB;"
       inkscape:label="Noise Fill"
       id="filter25193">
      <feTurbulence
         type="fractalNoise"
         baseFrequency="0.02 0.04"
         numOctaves="5"
         seed="1"
         result="turbulence"
         id="feTurbulence25177" />
      <feComposite
         in="SourceGraphic"
         in2="turbulence"
         operator="in"
         result="composite1"
         id="feComposite25179" />
      <feColorMatrix
         values="1 0 0 0 0 0 1 0 0 0 0 0 1 0 0 0 0 0 3 -0.2 "
         result="color"
         id="feColorMatrix25181" />
      <feFlood
         flood-opacity="1"
         flood-color="rgb(21,40,57)"
         result="flood"
         id="feFlood25183" />
      <feMerge
         result="merge"
         id="feMerge25189">
        <feMergeNode
           in="flood"
           id="feMergeNode25185" />
        <feMergeNode
           in="color"
           id="feMergeNode25187" />
      </feMerge>
      <feComposite
         in2="SourceGraphic"
         operator="in"
         result="composite2"
         id="feComposite25191" />
    </filter>
    <filter
       style="color-interpolation-filters:sRGB;"
       inkscape:label="Noise Fill"
       id="filter25211">
      <feTurbulence
         type="fractalNoise"
         baseFrequency="0.02 0.04"
         numOctaves="5"
         seed="1"
         result="turbulence"
         id="feTurbulence25195" />
      <feComposite
         in="SourceGraphic"
         in2="turbulence"
         operator="in"
         result="composite1"
         id="feComposite25197" />
      <feColorMatrix
         values="1 0 0 0 0 0 1 0 0 0 0 0 1 0 0 0 0 0 3 -0.2 "
         result="color"
         id="feColorMatrix25199" />
      <feFlood
         flood-opacity="1"
         flood-color="rgb(21,40,57)"
         result="flood"
         id="feFlood25201" />
      <feMerge
         result="merge"
         id="feMerge25207">
        <feMergeNode
           in="flood"
           id="feMergeNode25203" />
        <feMergeNode
           in="color"
           id="feMergeNode25205" />
      </feMerge>
      <feComposite
         in2="SourceGraphic"
         operator="in"
         result="composite2"
         id="feComposite25209" />
    </filter>
    <filter
       style="color-interpolation-filters:sRGB;"
       inkscape:label="Noise Fill"
       id="filter25229">
      <feTurbulence
         type="fractalNoise"
         baseFrequency="0.02 0.04"
         numOctaves="5"
         seed="1"
         result="turbulence"
         id="feTurbulence25213" />
      <feComposite
         in="SourceGraphic"
         in2="turbulence"
         operator="in"
         result="composite1"
         id="feComposite25215" />
      <feColorMatrix
         values="1 0 0 0 0 0 1 0 0 0 0 0 1 0 0 0 0 0 3 -0.2 "
         result="color"
         id="feColorMatrix25217" />
      <feFlood
         flood-opacity="1"
         flood-color="rgb(21,40,57)"
         result="flood"
         id="feFlood25219" />
      <feMerge
         result="merge"
         id="feMerge25225">
        <feMergeNode
           in="flood"
           id="feMergeNode25221" />
        <feMergeNode
           in="color"
           id="feMergeNode25223" />
      </feMerge>
      <feComposite
         in2="SourceGraphic"
         operator="in"
         result="composite2"
         id="feComposite25227" />
    </filter>
    <filter
       style="color-interpolation-filters:sRGB;"
       inkscape:label="Noise Fill"
       id="filter25247">
      <feTurbulence
         type="fractalNoise"
         baseFrequency="0.02 0.04"
         numOctaves="5"
         seed="1"
         result="turbulence"
         id="feTurbulence25231" />
      <feComposite
         in="SourceGraphic"
         in2="turbulence"
         operator="in"
         result="composite1"
         id="feComposite25233" />
      <feColorMatrix
         values="1 0 0 0 0 0 1 0 0 0 0 0 1 0 0 0 0 0 3 -0.2 "
         result="color"
         id="feColorMatrix25235" />
      <feFlood
         flood-opacity="1"
         flood-color="rgb(21,40,57)"
         result="flood"
         id="feFlood25237" />
      <feMerge
         result="merge"
         id="feMerge25243">
        <feMergeNode
           in="flood"
           id="feMergeNode25239" />
        <feMergeNode
           in="color"
           id="feMergeNode25241" />
      </feMerge>
      <feComposite
         in2="SourceGraphic"
         operator="in"
         result="composite2"
         id="feComposite25245" />
    </filter>
    <filter
       style="color-interpolation-filters:sRGB;"
       inkscape:label="Noise Fill"
       id="filter25265">
      <feTurbulence
         type="fractalNoise"
         baseFrequency="0.02 0.04"
         numOctaves="5"
         seed="1"
         result="turbulence"
         id="feTurbulence25249" />
      <feComposite
         in="SourceGraphic"
         in2="turbulence"
         operator="in"
         result="composite1"
         id="feComposite25251" />
      <feColorMatrix
         values="1 0 0 0 0 0 1 0 0 0 0 0 1 0 0 0 0 0 3 -0.2 "
         result="color"
         id="feColorMatrix25253" />
      <feFlood
         flood-opacity="1"
         flood-color="rgb(21,40,57)"
         result="flood"
         id="feFlood25255" />
      <feMerge
         result="merge"
         id="feMerge25261">
        <feMergeNode
           in="flood"
           id="feMergeNode25257" />
        <feMergeNode
           in="color"
           id="feMergeNode25259" />
      </feMerge>
      <feComposite
         in2="SourceGraphic"
         operator="in"
         result="composite2"
         id="feComposite25263" />
    </filter>
  </defs>
  <sodipodi:namedview
     pagecolor="#ffffff"
     bordercolor="#666666"
     borderopacity="1"
     objecttolerance="10"
     gridtolerance="10"
     guidetolerance="10"
     inkscape:pageopacity="0"
     inkscape:pageshadow="2"
     inkscape:window-width="1600"
     inkscape:window-height="827"
     id="namedview80"
     showgrid="false"
     inkscape:zoom="1"
     inkscape:cx="250"
     inkscape:cy="1288.5175"
     inkscape:window-x="0"
     inkscape:window-y="44"
     inkscape:window-maximized="1"
     inkscape:current-layer="svg78" />
  <metadata
     id="metadata2">
    <rdf:RDF>
      <cc:Work
         rdf:about="">
        <dc:format>image/svg+xml</dc:format>
        <dc:type
           rdf:resource="http://purl.org/dc/dcmitype/StillImage" />
        <dc:title></dc:title>
      </cc:Work>
    </rdf:RDF>
  </metadata>
  <g
     transform="translate(-64.84924,-711.65998)"
     id="g16"
     style="filter:url(#filter25265)">
    <path
       d="m524.182,908.61-457.502,0,0-51.17,457.5,0z"
       fill="#000000"
       id="path4"
       style="fill:#00aa00" />
    <path
       d="m90.88,757.5,198.3,0c14.04,0,25.84,11.8,25.84,25.84v198.3c0,14.61-11.79,25.84-25.84,25.84h-198.3c-14.6,0-25.84-11.24-25.84-25.84v-198.3c0-14.05,11.23-25.84,25.84-25.84z"
       fill="#000000"
       id="path6"
       style="fill:#005500" />
    <polygon
       points="256,176.3,255.8,176.3,142.1,176.3,143.2,188.5,154.4,313.6,256,313.6,256,268.2,195.9,268.2,191.8,221.7,256,221.7"
       transform="matrix(0.74,0,0,0.66,-0.96,680)"
       fill="#ebebeb"
       id="polygon8" />
    <polygon
       points="202,336.3,177.4,336.3,156.4,336.3,162.8,407.6,255.8,433.5,256,433.4,256,386.2,255.8,386.2,205.2,372.6"
       transform="matrix(0.74,0,0,0.66,-0.96,680)"
       fill="#ebebeb"
       id="polygon10" />
    <polygon
       points="349.6,400,360.3,280.4,361.4,268.2,349.2,268.2,255.8,268.2,255.8,313.6,311.8,313.6,306.5,372.5,255.8,386.2,255.8,433.4,348.9,407.6"
       transform="matrix(0.74,0,0,0.66,-0.96,680)"
       fill="#ffffff"
       id="polygon12" />
    <polygon
       points="365.4,221.7,365.4,221.7,365.5,221.7,366.4,211.5,368.5,188.5,369.6,176.3,255.8,176.3,255.8,204.5,255.8,221.6,255.8,221.7"
       transform="matrix(0.74,0,0,0.66,-0.96,680)"
       fill="#ffffff"
       id="polygon14" />
  </g>
  <g
     transform="translate(-64.849237,-371.75614)"
     id="g36"
     style="filter:url(#filter25247)">
    <path
       d="M524.182,908.614,66.68,908.61v-51.17h457.5c0.001,0.00068,0.002,51.1739,0.002,51.1739z"
       fill="#000000"
       id="path18"
       style="fill:#165016" />
    <path
       d="m90.88,757.5,198.3,0c14.04,0,25.84,11.8,25.84,25.84v198.3c0,14.61-11.79,25.84-25.84,25.84h-198.3c-14.6,0-25.84-11.24-25.84-25.84v-198.3c0-14.05,11.23-25.84,25.84-25.84z"
       fill="#000000"
       id="path20"
       style="fill:#00aa00" />
    <g
       transform="matrix(0.91,0,0,0.8,54,682)"
       id="g34">
      <g
         transform="translate(55,142)"
         id="g32">
        <path
           d="m93.8,75.5,49.28,0,3.403-38.13-52.68,0,0-37.24,0.129,0,93.25,0-0.893,9.991-9.152,102.6-83.33,0,0-37.24z"
           fill="#ffffff"
           id="path22" />
        <path
           d="m94.02,172.2-0.163,0.046-41.47-11.2-2.652-29.7-20.15,0-17.23,0,5.216,58.47,76.28,21.18,0.172-0.048,0-38.74z"
           fill="#ebebeb"
           id="path24" />
        <path
           d="m139.9,111.2-4.484,49.87-41.53,11.21,0,38.74,76.34-21.16,0.56-6.29,6.478-72.37-37.36,0z"
           fill="#ffffff"
           id="path26" />
        <path
           d="m93.93,0.125,0,23.13,0,14.02,0,0.092-89.83,0-0.119,0-0.747-8.37-1.697-18.88-0.89-9.991,93.28,0z"
           fill="#ebebeb"
           id="path28" />
        <path
           d="m93.8,75.5,0,23.13,0,14.02,0,0.092-40.83,0-0.119,0-0.746-8.369-1.698-18.88-0.89-9.991,44.28,0z"
           fill="#ebebeb"
           id="path30" />
      </g>
    </g>
  </g>
  <g
     transform="translate(-64.853739,-31.847789)"
     id="g46"
     style="filter:url(#filter25229)">
    <path
       d="m523,908-457,0,0-51,457,0c-0.003,0.005,0,51,0,51z"
       fill="#000000"
       id="path38"
       style="fill:#44aa00" />
    <path
       d="m90,757,198,0c14,0,25,11,25,25v198c0,14-11,25-25,25h-198c-14,0-25-11-25-25v-198c0-14,11-25,25-25z"
       fill="#000000"
       id="path40"
       style="fill:#005500" />
    <switch
       transform="matrix(2.67,0,0,2.66,105,775)"
       id="switch44">
      <path
         d="m31.6,8.495c-8.68,0-16.32,3.215-22.22,9.205-6.077,6.16-9.376,14.15-9.376,22.48,0,8.421,3.212,16.24,9.29,22.31,6.077,6.077,13.98,9.376,22.31,9.376,8.334,0,16.41-3.299,22.66-9.463,5.904-5.817,9.029-13.54,9.029-22.23,0-8.595-3.125-16.41-9.116-22.4-6.077-6.077-13.89-9.29-22.57-9.29zm0.087,5.731c7.119,0,13.46,2.691,18.41,7.64,4.861,4.862,7.466,11.29,7.466,18.32,0,7.119-2.518,13.37-7.38,18.15-5.123,5.035-11.72,7.727-18.49,7.727-6.859,0-13.28-2.691-18.23-7.64-4.949-4.95-7.727-11.46-7.727-18.23,0-6.859,2.778-13.37,7.727-18.41,4.862-4.948,11.11-7.553,18.23-7.553z"
         fill="#ffffff"
         id="path42" />
    </switch>
  </g>
  <g
     transform="translate(-64.997708,308.08224)"
     id="g56"
     style="filter:url(#filter25211)">
    <path
       d="m523,908-457,0,0-51,457,0c0.00055,0.005,0,51,0,51z"
       fill="#000000"
       id="path48"
       style="fill:#005500" />
    <path
       d="m90,757,198,0c14,0,25,11,25,25v198c0,14-11,25-25,25h-198c-14,0-25-11-25-25v-198c0-14,11-25,25-25z"
       fill="#000000"
       id="path50"
       style="fill:#00aa00" />
    <switch
       transform="matrix(2.67,0,0,2.66,105,775)"
       id="switch54">
      <path
         d="m31.6,8.495c-8.68,0-16.32,3.215-22.22,9.205-6.077,6.16-9.376,14.15-9.376,22.48,0,8.421,3.212,16.24,9.29,22.31,6.077,6.077,13.98,9.376,22.31,9.376,8.334,0,16.41-3.299,22.66-9.463,5.904-5.817,9.029-13.54,9.029-22.23,0-8.595-3.125-16.41-9.116-22.4-6.077-6.077-13.89-9.29-22.57-9.29zm0.087,5.731c7.119,0,13.46,2.691,18.41,7.64,4.861,4.862,7.466,11.29,7.466,18.32,0,7.119-2.518,13.37-7.38,18.15-5.123,5.035-11.72,7.727-18.49,7.727-6.859,0-13.28-2.691-18.23-7.64-4.949-4.95-7.727-11.46-7.727-18.23,0-6.859,2.778-13.37,7.727-18.41,4.862-4.948,11.11-7.553,18.23-7.553z"
         fill="#ffffff"
         id="path52" />
    </switch>
  </g>
  <g
     transform="translate(-64.993206,648.06484)"
     id="g66"
     style="filter:url(#filter25193)">
    <path
       d="M523.002,908.004,66,908v-51h457z"
       fill="#000000"
       id="path58"
       style="fill:#00aa00" />
    <path
       d="m90,757,198,0c14,0,25,11,25,25v198c0,14-11,25-25,25h-198c-14,0-25-11-25-25v-198c0-14,11-25,25-25z"
       fill="#000000"
       id="path60"
       style="fill:#005500" />
    <switch
       transform="matrix(2.67,0,0,2.66,105,775)"
       id="switch64">
      <path
         d="m31.6,8.495c-8.68,0-16.32,3.215-22.22,9.205-6.077,6.16-9.376,14.15-9.376,22.48,0,8.421,3.212,16.24,9.29,22.31,6.077,6.077,13.98,9.376,22.31,9.376,8.334,0,16.41-3.299,22.66-9.463,5.904-5.817,9.029-13.54,9.029-22.23,0-8.595-3.125-16.41-9.116-22.4-6.077-6.077-13.89-9.29-22.57-9.29zm0.087,5.731c7.119,0,13.46,2.691,18.41,7.64,4.861,4.862,7.466,11.29,7.466,18.32,0,7.119-2.518,13.37-7.38,18.15-5.123,5.035-11.72,7.727-18.49,7.727-6.859,0-13.28-2.691-18.23-7.64-4.949-4.95-7.727-11.46-7.727-18.23,0-6.859,2.778-13.37,7.727-18.41,4.862-4.948,11.11-7.553,18.23-7.553z"
         fill="#ffffff"
         id="path62" />
    </switch>
  </g>
  <path
     d="m163.907,831.665c0.9402-2.881,2.197-9.278-1.253-17.47,0,0-6.087-1.835-19.86,6.912-5.396-1.279-11.13-1.912-16.88-1.912-6.325,0-12.72,0.765-18.68,2.316-14.21-9.2-20.48-7.315-20.48-7.315-4.095,9.718-1.564,16.91-0.7937,18.7-4.812,4.929-7.75,11.22-7.75,18.94,0,5.824,0.6988,11.05,2.406,15.59l1.795,3.858c4.796,8.486,14.25,13.97,31.08,15.69-2.388,1.522-4.824,4.111-5.811,8.493-1.238,6.789-0.8896,9.86-0.4598,22.56,0,0-0.3943,4.502-4.743,6.002,0,0-2.569,1.69,0.199,2.625,20.15-0.3765,15.4-0.2101,47.03-0.0005,2.76499-0.936,0.1982-2.624,0.1982-2.624-4.348-1.5-4.743-6.002-4.743-6.002v-18.19c0-7.094-3.147-10.85-6.226-12.83,17.94-1.689,26.55-7.187,30.52-15.73l1.417-3.814c1.33-4.549,1.73-9.785,1.73-15.62,0.00023-8.372-3.314-15.07-8.695-20.17z"
     fill="#ffffff"
     id="path68"
     style="filter:url(#filter25175)" />
  <path
     d="m123.72,1515.08c-5.37-9.792-14.53-13.69-25.17-13.69-15.48,0-27.8,10.95-27.8,29.49,0,18.8499,11.58,29.49,28.33,29.49,10.74,0,19.9-5.898,24.96-14.85l-11.8-6.003c-2.634,6.318-6.633,8.214-11.69,8.214-8.742,0-12.74-7.266-12.74-16.85,0-9.582,3.369-16.85,12.74-16.85,2.52599,0,7.581,1.371,10.53,7.686l12.64-6.636z"
     fill="#ffffff"
     id="path70"
     style="filter:url(#filter25157)" />
  <path
     d="m178.62,1515.08c-5.373-9.792-14.53-13.69-25.17-13.69-15.48,0-27.8,10.95-27.8,29.49,0,18.8499,11.59,29.49,28.33,29.49,10.74,0,19.9-5.898,24.96-14.85l-11.8-6.003c-2.631,6.318-6.633,8.214-11.69,8.214-8.739,0-12.74-7.266-12.74-16.85,0-9.582,3.372-16.85,12.74-16.85,2.526,0,7.581,1.371,10.53,7.686l12.64-6.636z"
     fill="#ffffff"
     id="path72"
     style="filter:url(#filter25139)" />
  <path
     d="m-131.159,1074.76a29.9247,29.288,0,1,1,-59.8494,0,29.9247,29.288,0,1,1,59.8494,0z"
     fill-rule="nonzero"
     transform="matrix(0.66413786,0,0,0.65985579,231.01021,457.31274)"
     fill="#ffffff"
     id="path74"
     style="filter:url(#filter25121)" />
  <path
     fill="#ffffff"
     d="m79.8473,1205.57c1.68655-8.4029,8.96498-13.6589,18.2147-15.2263h50.9692c12.3036,1.5744,20.0806,7.0224,22.0494,21.3633,0,24.0965,0.0273,16.7827,0.0273,39.0783-4.44202,5.3866-8.88421,8.1413-16.5136,12.2843l-0.84965-40.875c-1.25599-1.5793-2.34937-1.2487-3.35535-0.077l-0.34119,44.3285-49.5894-2.5618-0.0799-41.6113c-1.17481-1.4998-2.55781-1.3744-3.43524,0l-0.900424,38.8711c-5.64836,0.6695-8.26792-1.4298-15.9054-7.3428,0,0-0.327844-31.3479-0.290426-48.2313z"
     id="path76"
     style="filter:url(#filter25103)" />
</svg>
